<svg id="Group_2" data-name="Group 2" xmlns="http://www.w3.org/2000/svg" width="56.944" height="56.945" viewBox="0 0 56.944 56.945">
  <g id="Group_1" data-name="Group 1" transform="translate(0 0)">
    <path id="Path_3" data-name="Path 3" d="M223.441,276.563a28.472,28.472,0,0,0,0,56.945c.4,0,.8-.01,1.2-.027V312.7H220.35v-7.163h4.295v-4.3c0-5.844,2.42-9.321,9.3-9.321h5.731v7.167H236.1c-2.68,0-2.859,1-2.859,2.868l-.009,3.586h6.489l-.758,7.163h-5.731v19.084a28.478,28.478,0,0,0-9.79-55.218Z" transform="translate(-194.969 -276.563)" fill="#3b5998"/>
    <path id="Path_4" data-name="Path 4" d="M386.416,384.141c-6.883,0-9.3,3.478-9.3,9.321v4.3h-4.295v7.163h4.295v20.783a28.371,28.371,0,0,0,8.585-1.7V404.924h5.731l.758-7.163H385.7l.009-3.586c0-1.868.179-2.868,2.859-2.868h3.581v-7.167h-5.731Z" transform="translate(-347.435 -368.787)" fill="#fff"/>
  </g>
</svg>
