<svg xmlns="http://www.w3.org/2000/svg" xmlns:xlink="http://www.w3.org/1999/xlink" width="57" height="57" viewBox="0 0 57 57">
  <defs>
    <clipPath id="clip-path">
      <circle id="Ellipse_3" data-name="Ellipse 3" cx="28.5" cy="28.5" r="28.5" transform="translate(-0.067)" fill="none"/>
    </clipPath>
    <radialGradient id="radial-gradient" cx="0.5" cy="0.5" r="0.5" gradientUnits="objectBoundingBox">
      <stop offset="0" stop-color="#ffd676"/>
      <stop offset="0.25" stop-color="#f2a454"/>
      <stop offset="0.38" stop-color="#f05c3c"/>
      <stop offset="0.7" stop-color="#c22f86"/>
      <stop offset="0.96" stop-color="#6666ad"/>
      <stop offset="0.99" stop-color="#5c6cb2"/>
    </radialGradient>
  </defs>
  <g id="Group_12" data-name="Group 12" transform="translate(0.067)">
    <g id="Group_6" data-name="Group 6" transform="translate(0 0)" clip-path="url(#clip-path)">
      <circle id="Ellipse_2" data-name="Ellipse 2" cx="61.5" cy="61.5" r="61.5" transform="translate(-49.067 -7)" fill="url(#radial-gradient)"/>
    </g>
    <ellipse id="Ellipse_11" data-name="Ellipse 11" cx="2" cy="2.5" rx="2" ry="2.5" transform="translate(34.933 19)" fill="#fff"/>
    <path id="Path_11" data-name="Path 11" d="M55.155,48a7.155,7.155,0,1,0,7.155,7.155A7.155,7.155,0,0,0,55.155,48Zm0,10.732a3.577,3.577,0,1,1,3.577-3.577A3.577,3.577,0,0,1,55.155,58.732Z" transform="translate(-26.536 -26.163)" fill="#fff"/>
    <rect id="Rectangle_2" data-name="Rectangle 2" width="28" height="28" rx="12" transform="translate(14.933 15)" fill="none" stroke="#fff" stroke-miterlimit="10" stroke-width="8"/>
  </g>
</svg>
