<svg xmlns="http://www.w3.org/2000/svg" width="58" height="57.723" viewBox="0 0 58 57.723">
  <path id="Path_2" data-name="Path 2" d="M55.538,2H10.923A4.3,4.3,0,0,0,6.462,6.123v4.123H4.231A2.152,2.152,0,0,0,2,12.308a2.152,2.152,0,0,0,2.231,2.062h6.692a2.152,2.152,0,0,1,2.231,2.062,2.152,2.152,0,0,1-2.231,2.062H6.462V43.231H4.231a2.068,2.068,0,1,0,0,4.123h6.692a2.068,2.068,0,1,1,0,4.123H6.462V55.6a4.3,4.3,0,0,0,4.462,4.123H55.538A4.3,4.3,0,0,0,60,55.6V6.123A4.3,4.3,0,0,0,55.538,2ZM33.231,12.308c4.928,0,8.923,3.692,8.923,8.246s-4,8.246-8.923,8.246-8.923-3.692-8.923-8.246S28.3,12.308,33.231,12.308ZM46.615,47.354H19.846V43.231c0-6.832,5.992-12.369,13.385-12.369S46.615,36.4,46.615,43.231Z" transform="translate(-2 -2)" fill="#c8cddc"/>
</svg>
