<svg xmlns="http://www.w3.org/2000/svg" width="58" height="58" viewBox="0 0 58 58">
  <g id="service" transform="translate(-2 -2)">
    <rect id="Rectangle_3" data-name="Rectangle 3" width="2" height="2" transform="translate(6 27)" fill="#c8cddc"/>
    <rect id="Rectangle_4" data-name="Rectangle 4" width="2" height="2" transform="translate(6 23)" fill="#c8cddc"/>
    <path id="Path_3" data-name="Path 3" d="M9.5,10A2.5,2.5,0,1,0,7,7.5,2.5,2.5,0,0,0,9.5,10Zm0-3a.5.5,0,1,1-.5.5A.5.5,0,0,1,9.5,7Zm0,7A2.5,2.5,0,1,0,12,16.5,2.5,2.5,0,0,0,9.5,14Zm0,3a.5.5,0,1,1,.5-.5A.5.5,0,0,1,9.5,17Z" fill="#c8cddc"/>
    <path id="Path_4" data-name="Path 4" d="M57.745,43.953a7.67,7.67,0,0,0-5.458-2.262,8.539,8.539,0,0,0-.86.048L48.6,38.9a11,11,0,0,0,.357-1.131H53.2a.966.966,0,0,0,.966-.967V32.933a.966.966,0,0,0-.966-.967H48.955a11.411,11.411,0,0,0-1.236-2.987l3-3a.981.981,0,0,0,0-1.373l-2.734-2.736a.973.973,0,0,0-1.372,0l-2.994,3.006a11.394,11.394,0,0,0-2.985-1.237V19.4a.966.966,0,0,0-.966-.967h-2.9V2.967A.966.966,0,0,0,35.808,2H2.966A.966.966,0,0,0,2,2.967V56.133a.966.966,0,0,0,.966.967H4.9v1.933A.966.966,0,0,0,5.864,60h5.8a.966.966,0,0,0,.966-.967V57.1H26.149v1.933a.966.966,0,0,0,.966.967h5.8a.966.966,0,0,0,.966-.967V57.1h1.932a.966.966,0,0,0,.966-.967V51.3h2.9a.966.966,0,0,0,.966-.967V46.09a10.978,10.978,0,0,0,1.13-.358l2.84,2.832a8.4,8.4,0,0,0-.048.86,7.724,7.724,0,0,0,11.4,6.8.967.967,0,0,0,.222-1.527l-3.217-3.219L54.335,50.1l3.217,3.219a.948.948,0,0,0,.821.271.938.938,0,0,0,.705-.493,7.771,7.771,0,0,0-1.333-9.145ZM35.992,25.364a.966.966,0,0,0,.782-.947v-4.05h1.932v4.05a.966.966,0,0,0,.792.947A9.666,9.666,0,0,1,43.207,26.9a.965.965,0,0,0,1.236-.106L47.3,23.924,48.675,25.3l-2.869,2.861A.967.967,0,0,0,45.7,29.4a9.767,9.767,0,0,1,1.536,3.712.966.966,0,0,0,.947.793h4.047v1.933H48.182a.966.966,0,0,0-.947.793c-.048.242-.116.483-.184.735l-1.632-1.643a8.369,8.369,0,0,0,.048-.851A7.736,7.736,0,0,0,36.9,27.191l-1.652-1.643C35.5,25.48,35.741,25.413,35.992,25.364Zm7.428,8.352-4.54-4.534a5.8,5.8,0,0,1,4.54,4.534ZM3.932,3.933h30.91V10.7H3.932Zm0,8.7h30.91V19.4H31.036a7.7,7.7,0,0,0-11.311-5.684.951.951,0,0,0-.222,1.527l3.207,3.219-1.362,1.363-3.217-3.209a.954.954,0,0,0-.821-.28.991.991,0,0,0-.715.5,7.716,7.716,0,0,0-.821,2.562H3.932Zm30.91,8.7v2.31a10.979,10.979,0,0,0-1.13.358l-2.647-2.639a.036.036,0,0,0,.01-.029ZM24.758,17.776,21.9,14.915a5.8,5.8,0,1,1-4.1,4.1l2.859,2.861a.992.992,0,0,0,1.372,0l2.724-2.726a.957.957,0,0,0,0-1.373ZM10.694,58.067H6.83V57.1h3.864Zm21.251,0H28.081V57.1h3.864Zm2.9-2.9H3.932V21.333H15.745a7.649,7.649,0,0,0,7.65,6.912,8.2,8.2,0,0,0,.85-.048l2.637,2.639a11,11,0,0,0-.357,1.131H22.285a.966.966,0,0,0-.966.967V36.8a.966.966,0,0,0,.966.967h4.241a11.411,11.411,0,0,0,1.236,2.987l-3,3a.981.981,0,0,0,0,1.373l2.734,2.736a.973.973,0,0,0,1.372,0l2.994-3.006a11.393,11.393,0,0,0,2.985,1.237Zm4.646-10.8a.966.966,0,0,0-.782.947v4.05H36.774v-4.05a.966.966,0,0,0-.792-.947,9.666,9.666,0,0,1-3.709-1.537.965.965,0,0,0-1.236.106l-2.859,2.871-1.372-1.373,2.869-2.861a.967.967,0,0,0,.106-1.237,9.767,9.767,0,0,1-1.536-3.712.966.966,0,0,0-.947-.793H23.251V33.9H27.3a.966.966,0,0,0,.947-.793c.048-.242.116-.483.184-.735l1.632,1.643a8.37,8.37,0,0,0-.048.851A7.741,7.741,0,0,0,37.74,42.6a8.351,8.351,0,0,0,.85-.048l1.642,1.634C39.981,44.253,39.74,44.321,39.488,44.369ZM32.06,36.017l4.53,4.534a5.8,5.8,0,0,1-4.53-4.534Zm-5.641-8.381a7.806,7.806,0,0,0,2.444-1.653,7.715,7.715,0,0,0,1.642-2.455L49.264,42.3a7.77,7.77,0,0,0-4.1,4.1ZM57.88,50.923l-2.859-2.871a1.016,1.016,0,0,0-.686-.28,1,1,0,0,0-.686.28l-2.734,2.736a1,1,0,0,0-.28.686,1.017,1.017,0,0,0,.28.686l2.869,2.861a5.8,5.8,0,1,1,4.1-4.1Z" fill="#c8cddc"/>
    <path id="Path_5" data-name="Path 5" d="M20,46a4,4,0,1,0,4,4A4,4,0,0,0,20,46Zm0,6a1.992,1.992,0,0,1-1-3.72V50h2V48.28A1.992,1.992,0,0,1,20,52Z" transform="translate(-0.55 -2)" fill="#c8cddc"/>
    <rect id="Rectangle_5" data-name="Rectangle 5" width="2" height="4" transform="translate(17 35)" fill="#c8cddc"/>
    <rect id="Rectangle_6" data-name="Rectangle 6" width="2" height="6" transform="translate(14 33)" fill="#c8cddc"/>
    <rect id="Rectangle_7" data-name="Rectangle 7" width="2" height="9" transform="translate(10 30)" fill="#c8cddc"/>
    <path id="Path_6" data-name="Path 6" d="M20,42v2H7a1,1,0,0,1-1-1V32H8V42Z" transform="translate(0 -1.25)" fill="#c8cddc"/>
  </g>
</svg>
