<svg id="Group_5" data-name="Group 5" xmlns="http://www.w3.org/2000/svg" width="56.944" height="56.945" viewBox="0 0 56.944 56.945">
  <ellipse id="Ellipse_1" data-name="Ellipse 1" cx="28.472" cy="28.472" rx="28.472" ry="28.472" transform="translate(0 0)" fill="#55acee"/>
  <g id="Group_4" data-name="Group 4" transform="translate(12.74 17.271)">
    <path id="Path_7" data-name="Path 7" d="M58.275,37.219a13.578,13.578,0,0,1-3.909,1.07,6.824,6.824,0,0,0,2.993-3.764,13.624,13.624,0,0,1-4.322,1.651,6.811,6.811,0,0,0-11.6,6.208,19.319,19.319,0,0,1-14.028-7.112,6.813,6.813,0,0,0,2.106,9.087,6.758,6.758,0,0,1-3.082-.852c0,.029,0,.058,0,.086a6.81,6.81,0,0,0,5.46,6.673,6.832,6.832,0,0,1-3.073.118,6.813,6.813,0,0,0,6.358,4.726A13.739,13.739,0,0,1,25.1,57.928a19.251,19.251,0,0,0,10.432,3.058c12.518,0,19.364-10.37,19.364-19.364,0-.295-.007-.589-.02-.88a13.8,13.8,0,0,0,3.4-3.522Z" transform="translate(-25.103 -34.028)" fill="#f1f2f2"/>
  </g>
</svg>
