<svg id="Group_3" data-name="Group 3" xmlns="http://www.w3.org/2000/svg" width="57.127" height="57.127" viewBox="0 0 57.127 57.127">
  <path id="Path_5" data-name="Path 5" d="M28.571,0h-.014A28.546,28.546,0,0,0,5.438,45.305L1.878,55.917l10.979-3.51A28.559,28.559,0,1,0,28.571,0Z" transform="translate(0 0)" fill="#4caf50"/>
  <path id="Path_6" data-name="Path 6" d="M36.575,30.93c-.689,1.946-3.424,3.56-5.606,4.031-1.492.318-3.442.571-10-2.149C12.571,29.334,7.165,20.8,6.744,20.251c-.4-.553-3.392-4.517-3.392-8.615A9.119,9.119,0,0,1,6.273,4.684,4.15,4.15,0,0,1,9.193,3.659c.353,0,.671.018.957.032.839.036,1.26.086,1.814,1.41.689,1.66,2.367,5.759,2.567,6.18a1.7,1.7,0,0,1,.121,1.546,4.936,4.936,0,0,1-.925,1.31c-.421.486-.821.857-1.243,1.378-.386.453-.821.939-.336,1.778a25.353,25.353,0,0,0,4.634,5.759,21,21,0,0,0,6.7,4.131,1.806,1.806,0,0,0,2.014-.318,34.56,34.56,0,0,0,2.232-2.956,1.594,1.594,0,0,1,2.049-.621c.771.268,4.852,2.285,5.691,2.7s1.392.621,1.6.975A7.114,7.114,0,0,1,36.575,30.93Z" transform="translate(8.616 9.405)" fill="#fafafa"/>
</svg>
